<?xml version="1.0" standalone="no"?>
<!DOCTYPE svg PUBLIC "-//W3C//DTD SVG 20010904//EN"
 "http://www.w3.org/TR/2001/REC-SVG-20010904/DTD/svg10.dtd">
<svg version="1.0" xmlns="http://www.w3.org/2000/svg"
 width="1080.000000pt" height="1080.000000pt" viewBox="0 0 1080.000000 1080.000000"
 preserveAspectRatio="xMidYMid meet">
<metadata>
Created by potrace 1.16, written by Peter Selinger 2001-2019
</metadata>
<g transform="translate(0.000000,1080.000000) scale(0.100000,-0.100000)"
fill="#000000" stroke="none">
<path d="M5966 7448 c-20 -23 -36 -50 -36 -61 0 -10 -49 -132 -109 -270 -60
-139 -135 -313 -166 -387 -73 -171 -113 -260 -118 -260 -3 0 0 21 5 48 15 82
38 214 38 222 0 4 9 10 19 13 21 5 61 76 81 144 11 37 10 50 -10 115 -15 46
-34 83 -52 100 -23 21 -28 34 -28 73 0 37 -5 52 -27 74 -34 33 -126 56 -226
56 -65 0 -70 -2 -97 -32 -50 -56 -63 -159 -25 -197 18 -18 19 -30 3 -56 -9
-14 -10 -22 -1 -31 8 -8 8 -18 -2 -37 -29 -60 -45 -131 -45 -200 0 -55 -5 -83
-21 -115 -13 -24 -24 -69 -27 -107 -7 -96 -37 -122 -157 -135 -89 -9 -166 -29
-201 -51 -15 -10 -48 -45 -74 -78 l-48 -61 -88 0 c-76 0 -97 -4 -144 -27 -324
-156 -449 -205 -566 -217 -54 -6 -121 -19 -148 -27 -44 -15 -52 -15 -75 -1
-89 51 -202 14 -220 -74 -4 -18 -2 -58 3 -88 9 -56 9 -57 -32 -111 -23 -30
-58 -95 -78 -145 -51 -129 -74 -163 -149 -225 -74 -61 -85 -76 -85 -115 0 -33
97 -138 155 -168 60 -30 139 -28 201 7 45 26 59 28 174 31 90 2 146 9 200 24
41 12 89 24 105 27 l30 6 43 -129 c23 -71 42 -142 42 -158 0 -18 -14 -50 -36
-80 -20 -28 -46 -71 -60 -97 -13 -25 -55 -80 -93 -121 -38 -41 -77 -86 -86
-100 -23 -36 -21 -93 9 -222 14 -60 28 -120 31 -131 6 -28 75 -111 112 -135
56 -37 163 -12 216 51 23 26 27 41 27 91 l0 59 42 -2 c36 -1 45 3 75 36 25 27
45 39 70 41 19 2 36 5 37 7 54 77 81 107 98 110 19 3 50 36 103 111 13 19 17
20 25 7 15 -24 10 -98 -13 -190 l-22 -85 -50 -18 c-103 -39 -120 -50 -179
-114 -60 -64 -80 -101 -70 -128 6 -15 -42 -21 -236 -30 -360 -18 -910 -63
-924 -76 -6 -5 938 -9 2192 -9 1212 0 2202 4 2202 9 0 4 -30 11 -67 14 -179
15 -469 38 -563 45 -97 6 -105 9 -103 27 2 11 10 63 19 115 49 299 15 641 -92
928 -84 225 -239 488 -421 714 -99 123 -211 222 -308 270 -120 61 -269 98
-389 98 l-43 0 -5 72 -6 72 128 295 c178 413 156 374 215 384 96 15 335 -12
475 -54 l37 -11 7 -75 c13 -158 88 -248 241 -290 28 -7 112 -18 188 -23 76 -5
143 -12 147 -15 5 -3 5 -17 -1 -32 -11 -30 -3 -106 17 -144 18 -36 76 -71 185
-112 111 -41 231 -63 425 -76 240 -17 398 -84 539 -229 33 -34 66 -62 72 -62
33 0 28 132 -7 205 -44 91 -151 167 -290 204 -41 11 -133 27 -205 36 -149 18
-327 58 -394 88 l-46 21 40 5 c39 6 40 7 63 74 25 74 31 174 13 219 -18 49
-119 84 -317 112 -120 18 -192 34 -269 63 -57 22 -54 8 -35 173 16 139 6 172
-67 216 -88 53 -340 125 -558 159 -55 9 -102 18 -104 21 -3 2 6 18 18 35 20
27 22 38 16 85 -8 66 -21 69 -69 12z m-486 -542 c0 -3 -23 -12 -51 -21 -72
-24 -144 -99 -195 -205 -24 -48 -44 -106 -47 -132 l-5 -48 34 0 c18 0 36 -4
39 -10 3 -5 -1 -10 -10 -10 -12 0 -15 -6 -9 -22 l6 -21 -27 21 c-28 22 -45 21
-45 -3 0 -7 -15 -29 -33 -48 -34 -37 -88 -57 -147 -56 -29 0 -23 3 32 18 103
26 128 59 143 180 8 69 80 213 135 270 41 42 128 91 163 91 9 0 17 -2 17 -4z
m-610 -743 c25 -2 71 2 105 11 84 22 95 21 95 -11 0 -33 -48 -116 -63 -110 -7
3 -75 31 -151 61 -77 31 -141 58 -142 59 -2 1 9 18 23 36 l26 33 31 -37 c26
-30 40 -38 76 -42z m-311 -7 c-2 -2 -40 -16 -84 -31 -44 -14 -165 -66 -270
-114 -201 -93 -238 -105 -376 -120 -48 -6 -104 -17 -124 -25 -46 -19 -51 -20
-36 -3 15 19 72 34 171 47 113 14 177 35 355 118 148 70 312 131 349 132 11 0
17 -2 15 -4z m1301 -1297 c13 -24 68 -91 124 -149 56 -58 145 -159 198 -225
53 -66 118 -144 145 -174 26 -30 39 -49 28 -43 -27 16 -64 56 -191 207 -60 71
-148 170 -195 220 -47 49 -97 110 -112 135 -30 52 -62 164 -51 182 4 7 13 -15
20 -49 7 -33 22 -80 34 -104z m386 -625 c52 -56 94 -106 94 -111 0 -5 -22 -18
-48 -29 -47 -20 -50 -24 -81 -102 -18 -45 -38 -82 -45 -83 -21 -1 -391 3 -421
5 -16 1 -63 3 -102 4 -71 2 -72 2 -63 25 7 17 50 264 50 289 0 3 10 8 23 12
16 4 34 26 58 73 33 66 35 68 69 66 38 -3 56 8 83 50 10 16 35 47 55 69 l37
41 98 -104 c55 -57 141 -150 193 -205z m-1126 -11 c11 -93 10 -101 -10 -147
-22 -48 -28 -97 -16 -134 6 -19 1 -20 -116 -24 -68 -3 -127 -2 -132 2 -4 5 4
16 19 26 14 9 35 35 46 57 11 21 31 49 44 61 13 11 38 56 55 99 18 42 40 82
50 87 10 5 23 23 28 40 6 16 13 30 15 30 3 0 10 -44 17 -97z"/>
</g>
</svg>
