<svg width="1127" height="855" viewBox="0 0 1127 855" fill="none" xmlns="http://www.w3.org/2000/svg">
<g clip-path="url(#clip0)">
<path d="M641.194 816C920.65 816 1147.19 802.121 1147.19 785C1147.19 767.879 920.65 754 641.194 754C361.737 754 135.194 767.879 135.194 785C135.194 802.121 361.737 816 641.194 816Z" fill="#3F3D56"/>
<path opacity="0.1" d="M641.194 805C879.228 805 1072.19 795.822 1072.19 784.5C1072.19 773.178 879.228 764 641.194 764C403.159 764 210.194 773.178 210.194 784.5C210.194 795.822 403.159 805 641.194 805Z" fill="black"/>
<path d="M288.194 884C405.385 884 500.387 875.717 500.387 865.5C500.387 855.283 405.385 847 288.194 847C171.002 847 76 855.283 76 865.5C76 875.717 171.002 884 288.194 884Z" fill="#3F3D56"/>
<path d="M1024.19 191H272.194V781H1024.19V191Z" fill="#3F3D56"/>
<path d="M639.638 271.629H454.12C453.824 271.63 453.531 271.572 453.257 271.459C452.984 271.346 452.735 271.181 452.525 270.971C452.316 270.762 452.15 270.514 452.036 270.24C451.923 269.967 451.864 269.674 451.864 269.378C451.864 269.082 451.923 268.789 452.036 268.515C452.15 268.242 452.316 267.993 452.525 267.784C452.735 267.575 452.984 267.409 453.257 267.296C453.531 267.183 453.824 267.126 454.12 267.126H639.638C640.234 267.128 640.806 267.365 641.227 267.787C641.648 268.209 641.885 268.781 641.885 269.378C641.885 269.974 641.648 270.546 641.227 270.968C640.806 271.39 640.234 271.628 639.638 271.629Z" fill="#F2F2F2"/>
<path d="M842.717 296.395H550.932C550.335 296.395 549.762 296.158 549.34 295.735C548.918 295.313 548.68 294.741 548.68 294.143C548.68 293.546 548.918 292.974 549.34 292.551C549.762 292.129 550.335 291.892 550.932 291.892H842.717C843.013 291.892 843.305 291.95 843.579 292.063C843.852 292.177 844.1 292.342 844.309 292.551C844.518 292.76 844.684 293.009 844.797 293.282C844.91 293.555 844.968 293.848 844.968 294.143C844.968 294.439 844.91 294.732 844.797 295.005C844.684 295.278 844.518 295.526 844.309 295.735C844.1 295.945 843.852 296.11 843.579 296.223C843.305 296.337 843.013 296.395 842.717 296.395Z" fill="#F2F2F2"/>
<path d="M640.539 321.161H455.021C454.424 321.161 453.851 320.923 453.429 320.501C453.007 320.079 452.77 319.506 452.77 318.909C452.77 318.312 453.007 317.739 453.429 317.317C453.851 316.895 454.424 316.658 455.021 316.658H640.539C641.136 316.658 641.708 316.895 642.131 317.317C642.553 317.739 642.79 318.312 642.79 318.909C642.79 319.506 642.553 320.079 642.131 320.501C641.708 320.923 641.136 321.161 640.539 321.161Z" fill="#F2F2F2"/>
<path d="M842.717 321.611H657.199C656.602 321.611 656.029 321.374 655.607 320.951C655.185 320.529 654.948 319.957 654.948 319.359C654.948 318.762 655.185 318.19 655.607 317.767C656.029 317.345 656.602 317.108 657.199 317.108H842.717C843.314 317.108 843.887 317.345 844.309 317.767C844.731 318.19 844.968 318.762 844.968 319.359C844.968 319.957 844.731 320.529 844.309 320.951C843.887 321.374 843.314 321.611 842.717 321.611Z" fill="#F2F2F2"/>
<path d="M640.989 345.926H455.471C454.874 345.926 454.302 345.689 453.879 345.267C453.457 344.845 453.22 344.272 453.22 343.675C453.22 343.078 453.457 342.505 453.879 342.083C454.302 341.661 454.874 341.423 455.471 341.423H640.989C641.586 341.423 642.159 341.661 642.581 342.083C643.003 342.505 643.24 343.078 643.24 343.675C643.24 344.272 643.003 344.845 642.581 345.267C642.159 345.689 641.586 345.926 640.989 345.926Z" fill="#F2F2F2"/>
<path d="M641.439 370.692H455.922C455.324 370.692 454.752 370.455 454.33 370.033C453.907 369.61 453.67 369.038 453.67 368.441C453.67 367.843 453.907 367.271 454.33 366.849C454.752 366.426 455.324 366.189 455.922 366.189H641.439C642.036 366.189 642.609 366.426 643.031 366.849C643.454 367.271 643.691 367.843 643.691 368.441C643.691 369.038 643.454 369.61 643.031 370.033C642.609 370.455 642.036 370.692 641.439 370.692Z" fill="#F2F2F2"/>
<path d="M725.643 272.079H672.509C671.912 272.079 671.339 271.842 670.917 271.42C670.495 270.998 670.258 270.425 670.258 269.828C670.258 269.231 670.495 268.658 670.917 268.236C671.339 267.814 671.912 267.577 672.509 267.577H725.643C726.24 267.577 726.812 267.814 727.235 268.236C727.657 268.658 727.894 269.231 727.894 269.828C727.894 270.425 727.657 270.998 727.235 271.42C726.812 271.842 726.24 272.079 725.643 272.079Z" fill="#F2F2F2"/>
<path d="M725.643 345.926H672.509C671.912 345.926 671.339 345.689 670.917 345.267C670.495 344.845 670.258 344.272 670.258 343.675C670.258 343.078 670.495 342.505 670.917 342.083C671.339 341.661 671.912 341.423 672.509 341.423H725.643C726.24 341.423 726.812 341.661 727.235 342.083C727.657 342.505 727.894 343.078 727.894 343.675C727.894 344.272 727.657 344.845 727.235 345.267C726.812 345.689 726.24 345.926 725.643 345.926Z" fill="#F2F2F2"/>
<path d="M725.643 370.242H672.509C672.213 370.242 671.92 370.185 671.646 370.072C671.372 369.959 671.123 369.793 670.914 369.584C670.704 369.375 670.538 369.126 670.425 368.853C670.311 368.58 670.253 368.286 670.253 367.99C670.253 367.694 670.311 367.401 670.425 367.128C670.538 366.854 670.704 366.606 670.914 366.397C671.123 366.187 671.372 366.022 671.646 365.909C671.92 365.796 672.213 365.738 672.509 365.739H725.643C725.939 365.738 726.232 365.796 726.506 365.909C726.779 366.022 727.028 366.187 727.238 366.397C727.447 366.606 727.614 366.854 727.727 367.128C727.84 367.401 727.899 367.694 727.899 367.99C727.899 368.286 727.84 368.58 727.727 368.853C727.614 369.126 727.447 369.375 727.238 369.584C727.028 369.793 726.779 369.959 726.506 370.072C726.232 370.185 725.939 370.242 725.643 370.242Z" fill="#F2F2F2"/>
<path d="M814.799 370.242H761.666C761.069 370.24 760.498 370.003 760.077 369.581C759.655 369.159 759.419 368.587 759.419 367.99C759.419 367.394 759.655 366.822 760.077 366.4C760.498 365.978 761.069 365.74 761.666 365.739H814.799C815.095 365.738 815.389 365.796 815.662 365.909C815.936 366.022 816.185 366.187 816.394 366.397C816.604 366.606 816.77 366.854 816.884 367.128C816.997 367.401 817.055 367.694 817.055 367.99C817.055 368.286 816.997 368.58 816.884 368.853C816.77 369.126 816.604 369.375 816.394 369.584C816.185 369.793 815.936 369.959 815.662 370.072C815.389 370.185 815.095 370.242 814.799 370.242Z" fill="#F2F2F2"/>
<path d="M506.804 296.395H453.67C453.073 296.395 452.5 296.158 452.078 295.735C451.656 295.313 451.419 294.741 451.419 294.143C451.419 293.546 451.656 292.974 452.078 292.551C452.5 292.129 453.073 291.892 453.67 291.892H506.804C507.401 291.892 507.974 292.129 508.396 292.551C508.818 292.974 509.055 293.546 509.055 294.143C509.055 294.741 508.818 295.313 508.396 295.735C507.974 296.158 507.401 296.395 506.804 296.395Z" fill="#F2F2F2"/>
<path d="M639.863 636.361H454.346C453.748 636.361 453.176 636.123 452.754 635.701C452.331 635.279 452.094 634.706 452.094 634.109C452.094 633.512 452.331 632.939 452.754 632.517C453.176 632.095 453.748 631.858 454.346 631.858H639.863C640.46 631.858 641.033 632.095 641.455 632.517C641.878 632.939 642.115 633.512 642.115 634.109C642.115 634.706 641.878 635.279 641.455 635.701C641.033 636.123 640.46 636.361 639.863 636.361Z" fill="#F2F2F2"/>
<path d="M638.963 685.892H453.445C452.848 685.892 452.275 685.655 451.853 685.233C451.431 684.81 451.194 684.238 451.194 683.641C451.194 683.043 451.431 682.471 451.853 682.049C452.275 681.626 452.848 681.389 453.445 681.389H638.963C639.56 681.389 640.132 681.626 640.555 682.049C640.977 682.471 641.214 683.043 641.214 683.641C641.214 684.238 640.977 684.81 640.555 685.233C640.132 685.655 639.56 685.892 638.963 685.892Z" fill="#F2F2F2"/>
<path d="M639.413 710.658H453.895C453.599 710.658 453.306 710.601 453.032 710.488C452.759 710.375 452.51 710.209 452.3 710C452.091 709.791 451.924 709.542 451.811 709.269C451.697 708.996 451.639 708.702 451.639 708.406C451.639 708.11 451.697 707.817 451.811 707.544C451.924 707.27 452.091 707.022 452.3 706.813C452.51 706.604 452.759 706.438 453.032 706.325C453.306 706.212 453.599 706.154 453.895 706.155H639.413C639.709 706.154 640.002 706.212 640.276 706.325C640.55 706.438 640.798 706.604 641.008 706.813C641.218 707.022 641.384 707.27 641.497 707.544C641.611 707.817 641.669 708.11 641.669 708.406C641.669 708.702 641.611 708.996 641.497 709.269C641.384 709.542 641.218 709.791 641.008 710C640.798 710.209 640.55 710.375 640.276 710.488C640.002 710.601 639.709 710.658 639.413 710.658Z" fill="#F2F2F2"/>
<path d="M718.663 686.342H665.53C664.932 686.342 664.36 686.105 663.938 685.683C663.515 685.261 663.278 684.688 663.278 684.091C663.278 683.494 663.515 682.921 663.938 682.499C664.36 682.077 664.932 681.839 665.53 681.839H718.663C719.26 681.839 719.833 682.077 720.255 682.499C720.677 682.921 720.915 683.494 720.915 684.091C720.915 684.688 720.677 685.261 720.255 685.683C719.833 686.105 719.26 686.342 718.663 686.342Z" fill="#F2F2F2"/>
<path d="M718.663 710.658H665.53C664.932 710.658 664.36 710.421 663.938 709.998C663.515 709.576 663.278 709.003 663.278 708.406C663.278 707.809 663.515 707.236 663.938 706.814C664.36 706.392 664.932 706.155 665.53 706.155H718.663C719.26 706.155 719.833 706.392 720.255 706.814C720.677 707.236 720.915 707.809 720.915 708.406C720.915 709.003 720.677 709.576 720.255 709.998C719.833 710.421 719.26 710.658 718.663 710.658Z" fill="#F2F2F2"/>
<path d="M807.82 686.342H754.686C754.089 686.342 753.516 686.105 753.094 685.683C752.672 685.261 752.435 684.688 752.435 684.091C752.435 683.494 752.672 682.921 753.094 682.499C753.516 682.077 754.089 681.839 754.686 681.839H807.82C808.417 681.839 808.99 682.077 809.412 682.499C809.834 682.921 810.071 683.494 810.071 684.091C810.071 684.688 809.834 685.261 809.412 685.683C808.99 686.105 808.417 686.342 807.82 686.342Z" fill="#F2F2F2"/>
<path d="M842.942 661.126H551.157C550.56 661.126 549.987 660.889 549.565 660.467C549.143 660.045 548.906 659.472 548.906 658.875C548.906 658.278 549.143 657.705 549.565 657.283C549.987 656.861 550.56 656.623 551.157 656.623H842.942C843.539 656.623 844.112 656.861 844.534 657.283C844.956 657.705 845.194 658.278 845.194 658.875C845.194 659.472 844.956 660.045 844.534 660.467C844.112 660.889 843.539 661.126 842.942 661.126Z" fill="#F2F2F2"/>
<path d="M507.029 661.126H453.895C453.298 661.126 452.725 660.889 452.303 660.467C451.881 660.045 451.644 659.472 451.644 658.875C451.644 658.278 451.881 657.705 452.303 657.283C452.725 656.861 453.298 656.623 453.895 656.623H507.029C507.626 656.623 508.199 656.861 508.621 657.283C509.043 657.705 509.28 658.278 509.28 658.875C509.28 659.472 509.043 660.045 508.621 660.467C508.199 660.889 507.626 661.126 507.029 661.126Z" fill="#F2F2F2"/>
<path d="M842.942 735.874H551.157C550.861 735.874 550.568 735.817 550.294 735.704C550.02 735.591 549.771 735.425 549.562 735.216C549.352 735.007 549.186 734.758 549.073 734.485C548.959 734.212 548.901 733.918 548.901 733.622C548.901 733.326 548.959 733.033 549.073 732.76C549.186 732.486 549.352 732.238 549.562 732.029C549.771 731.82 550.02 731.654 550.294 731.541C550.568 731.428 550.861 731.37 551.157 731.371H842.942C843.539 731.371 844.112 731.608 844.534 732.03C844.956 732.453 845.194 733.025 845.194 733.622C845.194 734.219 844.956 734.792 844.534 735.214C844.112 735.637 843.539 735.874 842.942 735.874Z" fill="#F2F2F2"/>
<path d="M507.029 735.874H453.895C453.599 735.874 453.306 735.817 453.032 735.704C452.759 735.591 452.51 735.425 452.3 735.216C452.091 735.007 451.924 734.758 451.811 734.485C451.697 734.212 451.639 733.918 451.639 733.622C451.639 733.326 451.697 733.033 451.811 732.76C451.924 732.486 452.091 732.238 452.3 732.029C452.51 731.82 452.759 731.654 453.032 731.541C453.306 731.428 453.599 731.37 453.895 731.371H507.029C507.325 731.37 507.618 731.428 507.892 731.541C508.166 731.654 508.414 731.82 508.624 732.029C508.834 732.238 509 732.486 509.113 732.76C509.227 733.033 509.285 733.326 509.285 733.622C509.285 733.918 509.227 734.212 509.113 734.485C509 734.758 508.834 735.007 508.624 735.216C508.414 735.425 508.166 735.591 507.892 735.704C507.618 735.817 507.325 735.874 507.029 735.874Z" fill="#F2F2F2"/>
<path d="M595.06 430.13L523.014 501.275L595.06 572.42L611.27 556.21L556.786 501.725L611.72 446.79L595.06 430.13Z" fill="#BE616A"/>
<path d="M701.327 430.13L773.373 501.275L701.327 572.42L685.117 556.21L739.602 501.725L684.667 446.79L701.327 430.13Z" fill="#BE616A"/>
<path d="M292.194 215C297.164 215 301.194 210.971 301.194 206C301.194 201.029 297.164 197 292.194 197C287.223 197 283.194 201.029 283.194 206C283.194 210.971 287.223 215 292.194 215Z" fill="#BE616A"/>
<path d="M316.194 215C321.164 215 325.194 210.971 325.194 206C325.194 201.029 321.164 197 316.194 197C311.223 197 307.194 201.029 307.194 206C307.194 210.971 311.223 215 316.194 215Z" fill="#BE616A"/>
<path d="M340.194 215C345.164 215 349.194 210.971 349.194 206C349.194 201.029 345.164 197 340.194 197C335.223 197 331.194 201.029 331.194 206C331.194 210.971 335.223 215 340.194 215Z" fill="#BE616A"/>
<path opacity="0.1" d="M1024.19 221H272.194V224H1024.19V221Z" fill="black"/>
<path d="M198.622 780.091C196.024 781.538 193.283 782.712 190.444 783.594C185.365 784.981 179.936 784.472 174.806 785.657C172.706 786.142 170.42 787.156 169.752 789.205C169.262 790.709 169.795 792.332 170.306 793.829C175.974 810.448 179.391 828.095 188.431 843.149C192.23 849.472 196.945 855.197 202.423 860.137C204.479 861.989 206.808 863.801 209.559 864.092C210.827 864.226 212.108 864.023 213.272 863.503C214.437 862.984 215.444 862.167 216.191 861.134C216.939 860.101 217.401 858.889 217.53 857.621C217.66 856.352 217.453 855.072 216.929 853.91C216.119 852.108 214.612 850.713 213.64 848.994C212.587 846.804 211.969 844.429 211.821 842.003C210.928 834.895 210.067 827.466 212.53 820.738C214.182 816.226 217.212 812.379 219.737 808.291C222.261 804.202 224.358 799.519 223.797 794.747C223.413 791.49 221.825 788.51 220.147 785.693C218.465 782.87 215.142 775.284 211.764 774.342C208.257 773.364 201.68 778.524 198.622 780.091Z" fill="#2F2E41"/>
<path d="M291.057 837.5C291.109 839.108 290.885 840.713 290.393 842.245C289.336 845.038 286.712 846.951 285.357 849.612C283.472 853.313 284.326 857.786 285.575 861.747C286.358 864.23 287.385 866.814 289.488 868.35C291.286 869.464 293.331 870.119 295.442 870.257C313.478 872.753 331.8 871.321 350 871.844C353.318 871.939 356.83 872.055 359.725 870.434C362.621 868.813 364.411 864.737 362.442 862.066C360.673 859.668 357.177 859.69 354.2 859.549C346.448 859.155 339.067 856.114 333.287 850.934C332.147 849.96 331.158 848.822 330.354 847.557C329.735 846.435 329.221 845.257 328.819 844.04C326.268 837.128 323.232 830.406 319.736 823.921C318.757 822.106 317.649 820.216 315.83 819.245C314.498 818.639 313.053 818.324 311.59 818.319C307.054 818.025 295.307 816.481 291.799 820.009C288.558 823.268 291.128 833.36 291.057 837.5Z" fill="#2F2E41"/>
<path d="M318.971 434.695C334.973 434.695 347.946 421.723 347.946 405.72C347.946 389.718 334.973 376.745 318.971 376.745C302.968 376.745 289.996 389.718 289.996 405.72C289.996 421.723 302.968 434.695 318.971 434.695Z" fill="#FBBEBE"/>
<path d="M292.806 429.646C291.082 434.26 288.159 438.593 283.905 441.076L323.98 449.25C322.526 443.402 322.335 437.31 323.418 431.381C323.816 429.946 323.898 428.442 323.658 426.972C322.904 424.065 319.631 422.666 316.703 421.998C309.389 420.331 302.921 419.437 296.124 416.206C294.047 419.763 294.337 425.545 292.806 429.646Z" fill="#FBBEBE"/>
<path d="M283.571 430.227C287.882 428.276 292.579 427.327 297.309 427.45C302.039 427.574 306.68 428.767 310.884 430.941C316.022 433.648 320.276 437.735 324.455 441.767C328.308 445.484 332.418 449.739 332.691 455.086C332.824 457.676 332.015 460.208 331.607 462.769C330.874 468.066 331.806 473.459 334.275 478.202C336.744 482.945 340.628 486.802 345.387 489.239C348.571 494.542 349.228 500.968 349.277 507.153C349.462 530.589 342.067 554.314 347.346 577.148C348.586 582.51 350.508 587.702 351.578 593.1C352.965 600.091 352.897 607.279 353.622 614.369C354.409 622.047 356.126 629.601 358.736 636.865C356.992 639.639 353.362 640.702 350.093 640.478C346.825 640.253 343.768 638.834 340.851 637.342C326.728 630.115 313.792 620.585 299.164 614.442C289.487 610.379 279.177 607.847 269.789 603.154C260.4 598.461 251.669 591.012 248.798 580.916C247.557 576.551 247.48 571.951 247.413 567.413C247.127 548.299 246.862 528.977 251.023 510.319C254.692 493.866 261.764 478.125 263.307 461.338C263.809 455.874 263.82 450.025 266.873 445.465C271.188 439.02 280.505 437.351 283.571 430.227Z" fill="#2F2E41"/>
<path d="M302.492 406.129C304.199 403.903 307.492 403.599 310.219 404.258C312.947 404.916 315.462 406.322 318.217 406.856C318.843 407.034 319.499 407.079 320.144 406.988C320.789 406.898 321.407 406.674 321.96 406.33C322.923 405.382 323.499 404.109 323.576 402.76C324.54 397.019 324.766 391.178 324.246 385.38C324.103 384.566 324.157 383.73 324.405 382.942C325.087 381.299 327.168 380.908 328.867 380.38C331.671 379.433 334.079 377.578 335.711 375.109C337.343 372.64 338.106 369.698 337.88 366.747C337.838 365.332 337.243 363.989 336.223 363.007C335.048 362.049 333.403 361.99 331.887 361.978C324.099 361.916 316.31 361.917 308.521 361.984C305.638 362.008 302.61 362.079 300.111 363.516C298.264 364.579 296.89 366.289 295.231 367.628C290.905 371.119 285.053 371.829 279.79 373.619C277.22 374.35 274.887 375.742 273.022 377.654C271.272 379.654 270.43 382.628 271.53 385.047C272.094 386.055 272.724 387.025 273.416 387.951C276.521 392.915 274.454 399.354 274.918 405.191C275.497 412.479 286.283 424.302 293.597 426.027C305.404 428.811 298.583 410.914 302.492 406.129Z" fill="#2F2E41"/>
<path d="M286.134 725.683C286.879 731.004 287.835 736.344 287.58 741.712C287.223 749.206 284.52 756.426 284.021 763.911C283.648 769.502 284.511 775.153 283.734 780.703C283.237 784.256 282.078 787.681 281.361 791.196C280.225 796.925 280.257 802.824 281.455 808.54C282.654 814.256 284.993 819.672 288.334 824.462C288.825 825.282 289.523 825.958 290.358 826.423C291.158 826.719 292.015 826.833 292.865 826.755C301.299 826.583 309.71 825.819 318.036 824.467C318.645 824.442 319.223 824.187 319.652 823.754C319.84 823.467 319.96 823.141 320.003 822.8C321.547 814.864 318.026 806.907 317.131 798.872C316.175 790.292 318.234 781.694 320.277 773.307C321.204 769.169 322.361 765.087 323.744 761.079C324.732 758.382 325.925 755.758 326.781 753.016C327.994 748.709 328.732 744.282 328.983 739.814C329.577 732.764 329.892 725.697 329.928 718.615C330.13 711.903 329.571 705.191 328.263 698.605C326.385 690.267 322.539 682.524 318.727 674.875C316.688 675.363 314.775 676.273 313.109 677.545C308.196 680.726 303.067 683.56 297.759 686.025C294.192 687.682 287.237 688.859 284.973 692.311C282.741 695.716 284.181 702.662 284.352 706.417C284.645 712.862 285.239 719.284 286.134 725.683Z" fill="#2F2E41"/>
<path opacity="0.1" d="M286.134 725.683C286.879 731.004 287.835 736.344 287.58 741.712C287.223 749.206 284.52 756.426 284.021 763.911C283.648 769.502 284.511 775.153 283.734 780.703C283.237 784.256 282.078 787.681 281.361 791.196C280.225 796.925 280.257 802.824 281.455 808.54C282.654 814.256 284.993 819.672 288.334 824.462C288.825 825.282 289.523 825.958 290.358 826.423C291.158 826.719 292.015 826.833 292.865 826.755C301.299 826.583 309.71 825.819 318.036 824.467C318.645 824.442 319.223 824.187 319.652 823.754C319.84 823.467 319.96 823.141 320.003 822.8C321.547 814.864 318.026 806.907 317.131 798.872C316.175 790.292 318.234 781.694 320.277 773.307C321.204 769.169 322.361 765.087 323.744 761.079C324.732 758.382 325.925 755.758 326.781 753.016C327.994 748.709 328.732 744.282 328.983 739.814C329.577 732.764 329.892 725.697 329.928 718.615C330.13 711.903 329.571 705.191 328.263 698.605C326.385 690.267 322.539 682.524 318.727 674.875C316.688 675.363 314.775 676.273 313.109 677.545C308.196 680.726 303.067 683.56 297.759 686.025C294.192 687.682 287.237 688.859 284.973 692.311C282.741 695.716 284.181 702.662 284.352 706.417C284.645 712.862 285.239 719.284 286.134 725.683Z" fill="black"/>
<path d="M246.961 612.018C243.113 622.377 248.769 633.572 253.683 643.47C265.789 667.856 274.196 693.878 282.558 719.787C283.184 721.728 283.81 723.846 283.112 725.762C282.509 727.123 281.53 728.284 280.29 729.109C274.524 733.488 267.183 735.047 260.315 737.338C253.678 739.554 247.321 742.534 241.372 746.218C236.396 749.302 231.733 752.862 227.081 756.416L212.269 767.728C211.31 768.376 210.472 769.188 209.793 770.125C208.364 772.366 208.949 775.292 209.661 777.853C211.544 784.634 213.969 791.253 216.913 797.645C217.397 799.046 218.319 800.255 219.543 801.092C221.855 802.334 224.682 800.687 226.448 798.745C228.213 796.803 229.74 794.386 232.229 793.552C234.715 792.719 237.451 793.728 240.047 793.363C244.245 792.774 247.033 788.906 250.059 785.937C262.425 773.805 283.069 774.686 296.672 763.96C298.638 762.2 300.72 760.574 302.903 759.092C305.202 757.733 307.81 756.987 310.196 755.785C317.453 752.131 322.015 744.577 324.458 736.828C326.902 729.08 327.599 720.901 329.355 712.968C330.263 708.867 331.458 704.81 331.862 700.629C332.122 696.741 332.037 692.837 331.609 688.963L326.701 628.248C326.301 623.304 325.901 618.355 325.125 613.457C310.548 613.978 295.982 614.565 281.397 614.737C269.792 614.874 257.973 615.686 246.961 612.018Z" fill="#2F2E41"/>
<path d="M241.603 626.221C243.58 629.401 248.393 629.335 251.707 627.592C255.021 625.848 257.596 622.919 260.918 621.191C265.381 618.868 270.664 618.955 275.694 619.097C283.657 619.322 291.719 619.562 299.381 621.744C307.305 624.001 315.02 628.347 323.215 627.48C324.641 627.329 326.2 626.921 326.976 625.715C327.43 624.841 327.644 623.863 327.595 622.879L327.863 615.72C328.027 614.482 327.83 613.223 327.293 612.095C326.606 611.156 325.663 610.434 324.577 610.015C312.914 604.369 299.613 603.318 286.662 602.874C280.079 602.649 273.493 602.556 266.905 602.596C261.314 602.63 254.602 601.821 249.166 603.315C241.871 605.32 237.902 620.269 241.603 626.221Z" fill="#2F2E41"/>
<path d="M314.839 438.726C299.557 438.59 285.708 428.503 270.427 428.257C268.581 428.13 266.731 428.449 265.035 429.188C262.906 430.26 261.506 432.334 259.888 434.086C255.37 438.979 248.827 441.591 244.185 446.367C239.833 450.845 237.412 457.517 239.13 463.52C240.849 469.524 247.334 474.129 253.409 472.685C255.857 464.762 260.909 457.898 267.746 453.206C271.304 450.924 275.053 448.956 278.952 447.324C285.82 444.212 293.499 441.041 300.67 443.374C303.314 444.372 305.807 445.732 308.079 447.414L320.033 455.444C318.64 449.95 317.387 443.788 314.839 438.726Z" fill="#BE616A"/>
<path d="M251.649 467.374C249.62 469.906 252.543 473.574 252.096 476.787C251.798 478.922 250.041 480.552 249.31 482.58C248.552 484.681 248.954 487.007 248.666 489.222C248.378 490.832 247.951 492.414 247.391 493.951C246.104 498.543 245.205 503.235 244.705 507.977L242.03 527.953C241.566 530.959 241.283 533.99 241.184 537.03C241.319 539.303 241.167 541.583 240.732 543.817C240.139 546 238.828 547.91 237.946 549.993C237.063 552.075 236.654 554.595 237.846 556.517C233.855 559.842 232.668 566.371 235.459 570.752C235.99 571.435 236.406 572.2 236.689 573.017C236.843 574.16 236.655 575.322 236.147 576.357L233.443 583.564C232.75 585.409 232.531 588.217 234.456 588.638C232.862 590.294 231.62 592.256 230.805 594.405C230.41 595.484 230.291 596.645 230.461 597.782C230.631 598.919 231.084 599.994 231.777 600.911C232.449 601.5 233.021 602.195 233.472 602.967C233.736 604.043 233.668 605.174 233.276 606.21C232.871 607.784 232.793 609.424 233.047 611.029C233.3 612.634 233.879 614.171 234.749 615.544C235.65 616.898 236.926 617.96 238.421 618.601C239.916 619.242 241.565 619.434 243.167 619.152C248.578 617.932 253.44 616.005 258.895 617.006C270.641 619.162 282.425 621.326 293.801 624.958C306.785 629.104 319.357 635.183 332.927 636.459C333.82 636.642 334.748 636.497 335.544 636.052C336.235 635.397 336.665 634.513 336.754 633.564C338.152 627.009 339.55 620.454 340.948 613.899C342.638 606.634 343.925 599.28 344.803 591.872C345.28 587.091 345.416 582.283 345.552 577.479L346.633 539.248C347.139 533.614 346.388 527.937 344.433 522.629L338.215 502.781C334.667 491.454 326.528 481.409 323.63 469.899C321.796 462.614 320.441 454.796 315.522 449.118C308.509 441.023 296.377 439.764 285.758 441.156C280.961 441.784 276.122 442.87 271.973 445.357C267.175 448.234 263.64 452.766 260.22 457.194C257.402 460.843 254.533 463.776 251.649 467.374Z" fill="#BE616A"/>
<path d="M276.444 579.823C277.319 583.596 279.156 587.075 280.281 590.78C282.165 596.989 282.006 603.676 283.886 609.886C284.676 612.492 285.819 614.995 286.386 617.659C287.707 623.869 285.778 630.294 283.382 636.174C280.987 642.055 278.069 647.852 277.291 654.154C276.743 658.592 277.53 663.604 280.951 666.485C284.503 669.475 289.664 669.272 294.29 668.874C295.951 668.828 297.59 668.487 299.131 667.866C302.669 666.193 304.159 662.007 304.986 658.181C307.757 645.362 306.966 632.075 306.16 618.985L304.054 584.75C303.649 578.16 303.214 571.432 301.183 565.104C300.445 562.802 299.157 558.15 297.054 556.68C294.972 555.225 289.024 555.16 286.446 555.039C274.348 554.47 274.483 571.356 276.444 579.823Z" fill="#FBBEBE"/>
<path d="M289.848 453.423C287.377 452.13 284.265 452.687 281.876 454.128C279.57 455.707 277.551 457.668 275.904 459.926C270.566 466.443 264.914 473.921 265.706 482.308C266.002 485.453 267.207 488.429 268.023 491.48C271.602 504.86 267.644 519.01 268.098 532.853C268.361 540.852 270.101 548.72 271.835 556.533C272.188 558.127 272.755 559.973 274.297 560.51C275.456 560.913 276.708 560.395 277.855 559.959C282.127 558.38 286.717 557.853 291.236 558.423C295.755 558.992 300.071 560.641 303.818 563.231C306.683 561.702 305.609 556.868 304.967 553.685C303.058 544.228 305.649 534.471 308.795 525.35C311.941 516.229 315.706 507.12 316.227 497.485C316.818 486.569 313.198 475.915 309.627 465.582C308.848 463.327 307.996 460.962 306.189 459.404C304.641 458.254 302.868 457.443 300.986 457.027C297.193 455.906 293.352 455.258 289.848 453.423Z" fill="#2F2E41"/>
</g>
<defs>
<clipPath id="clip0">
<rect width="1126.19" height="855" fill="white"/>
</clipPath>
</defs>
</svg>
